<?xml version="1.0" encoding="UTF-8" standalone="no"?>
<!-- Created with Inkscape (http://www.inkscape.org/) -->

<svg
   xmlns:dc="http://purl.org/dc/elements/1.1/"
   xmlns:cc="http://creativecommons.org/ns#"
   xmlns:rdf="http://www.w3.org/1999/02/22-rdf-syntax-ns#"
   xmlns:svg="http://www.w3.org/2000/svg"
   xmlns="http://www.w3.org/2000/svg"
   xmlns:xlink="http://www.w3.org/1999/xlink"
   version="1.1"
   width="400"
   height="400"
   id="svg3086">
  <defs
     id="defs3088">
    <radialGradient
       cx="233"
       cy="253"
       r="179"
       id="radialGradient3814"
       gradientUnits="userSpaceOnUse"
       gradientTransform="matrix(1,0,0,0.97566989,0,6.1563485)">
      <stop
         id="stop3091"
         style="stop-color:#ff6c00;stop-opacity:1"
         offset="0" />
      <stop
         id="stop3093"
         style="stop-color:#d70000;stop-opacity:1"
         offset="1" />
    </radialGradient>
    <radialGradient
       cx="233"
       cy="253"
       r="179"
       id="radialGradient3115"
       xlink:href="#radialGradient3814"
       gradientUnits="userSpaceOnUse"
       gradientTransform="matrix(1,0,0,0.97566989,-32.529774,627.09086)" />
  </defs>
  <metadata
     id="metadata3097">
    <rdf:RDF>
      <cc:Work
         rdf:about="">
        <dc:format>image/svg+xml</dc:format>
        <dc:type
           rdf:resource="http://purl.org/dc/dcmitype/StillImage" />
        <dc:title></dc:title>
      </cc:Work>
    </rdf:RDF>
  </metadata>
  <g
     transform="translate(0,-652.36218)"
     id="g3099">
    <g
       id="g3117">
      <path
         d="m 320.47023,727.93451 c -30,-20 -71,-21.6 -110,-16.1 -20.4,2.93 -36.9,0.274 -57.4,-0.726 -21,-1.02 -35.3,1.82 -54.000004,8.98 -16,6.12 -25.3,10.4 -35.2,23.5 -11.1,14.8 -21.8,25.1 -27.4,43.7 -9.96,32.9 -6.63,70.7 5.34,103 5.36,14.3 9.04,29.2 13.5,43.8 3.75,12.3 10.5,22.6 15.8,34.4 5.2,11.5 12.3,22.8 21.2,31.69999 17.800004,18 36.600004,36.1 63.700004,38.7 17.7,1.7 35,-5.29 52.8,-4.25 11.4,0.67 23,5.48 34.4,3.35 16.2,-3 30.7,-16.2 43.1,-26.3 13.1,-10.7 24.4,-29.59999 34.1,-43.29999 10.2,-14.5 19.6,-28.1 27,-44.7 21.1,-47.3 32.3,-108 8.29,-156 -8.76,-17.7 -20.8,-30.5 -34.8,-39.5 z"
         id="path3103"
         style="fill:url(#radialGradient3115);stroke:#000000;stroke-width:20" />
      <path
         d="m 218.47023,748.93451 c 0,-6.32 1.19,-12.7 1.49,-18.9 0.367,-7.56 0.557,-15 0.268,-22.5 -0.107,-2.82 -0.236,-6.12 -0.777,-8.87 -0.504,-2.56 -0.652,-5.16 -1.04,-7.75 -0.848,-5.62 -2.41,-11.2 -4.74,-16.4 -1.07,-2.38 -3.29,-6.1 -5.51,-7.49 -2.02,-1.26 -5.62,-1.67 -7.97,-1.1 -3.22,0.777 -4.71,2.8 -2.91,5.99 2.44,4.32 5.97,8.57 7.4,13.4 1.36,4.52 1.66,9.31 1.66,14 0,8.1 -0.334,16.3 -0.324,24.4 0.006,4.37 -0.656,8.64 -0.809,13 -0.127,3.64 -0.16,7.38 -0.162,11"
         id="path3105"
         style="fill:none;stroke:#000000;stroke-width:20" />
      <path
         d="m 206.47023,691.13451 c -0.686,-5.05 -2.68,-10 -5.22,-14.4 -0.975,-1.69 -4.9,-5.77 -4.2,-7.93 1.36,-4.19 9.65,-3.03 12.2,-0.822 4.64,3.99 8.05,17.2 9.45,23.1 2.83,11.8 2.01,24 1.16,35.9 -0.555,7.77 0.75,16.1 -0.658,23.7 0.58,-3.14 -13.1,-1.55 -13.3,-2.38 -0.922,-5.02 0.131,-11 0.297,-16.1 0.449,-13.7 2.08,-27.4 0.23,-41.1 z"
         id="path3107"
         style="fill:#7f4408" />
      <path
         d="m 215.47023,751.93451 c -18.6,-2.54 -35,-12.7 -52.9,-17.5 -2.82,-0.751 -9.01,-0.261 -9.79,-1.19 9.38,-3.5 20,-2.93 29.4,0.302 15.1,4.83 29.5,12.9 45.6,13.4 11.9,0.835 23.9,1.23 35.8,-0.387 10.4,-1.96 20.6,-5.04 30.8,-7.89 -6.61,4.26 -14.5,5.78 -21.8,8.43 -17.2,5.28 -35.5,6.77 -53.3,5.4 -1.24,-0.131 -2.48,-0.292 -3.72,-0.488 z"
         id="path3109"
         style="fill:#000000" />
    </g>
  </g>
</svg>
